<?xml version="1.0" encoding="UTF-8"?>
<svg width="1200" height="800" xmlns="http://www.w3.org/2000/svg">
<rect width="1200" height="800" fill="white"/>
<g stroke="#e0e0e0" stroke-width="1">
<line x1="80" y1="80" x2="80" y2="720"/>
<line x1="184" y1="80" x2="184" y2="720"/>
<line x1="288" y1="80" x2="288" y2="720"/>
<line x1="392" y1="80" x2="392" y2="720"/>
<line x1="496" y1="80" x2="496" y2="720"/>
<line x1="600" y1="80" x2="600" y2="720"/>
<line x1="704" y1="80" x2="704" y2="720"/>
<line x1="808" y1="80" x2="808" y2="720"/>
<line x1="912" y1="80" x2="912" y2="720"/>
<line x1="1016" y1="80" x2="1016" y2="720"/>
<line x1="1120" y1="80" x2="1120" y2="720"/>
<line x1="80" y1="720" x2="1120" y2="720"/>
<line x1="80" y1="656" x2="1120" y2="656"/>
<line x1="80" y1="592" x2="1120" y2="592"/>
<line x1="80" y1="528" x2="1120" y2="528"/>
<line x1="80" y1="464" x2="1120" y2="464"/>
<line x1="80" y1="400" x2="1120" y2="400"/>
<line x1="80" y1="336" x2="1120" y2="336"/>
<line x1="80" y1="272" x2="1120" y2="272"/>
<line x1="80" y1="208" x2="1120" y2="208"/>
<line x1="80" y1="144" x2="1120" y2="144"/>
<line x1="80" y1="80" x2="1120" y2="80"/>
</g>
<path d="M 80,666.667 L 81.04,666.667 L 82.08,666.667 L 83.12,666.667 L 84.16,666.667 L 85.2,666.667 L 86.24,666.667 L 87.28,666.667 L 88.32,666.667 L 89.36,666.667 L 90.4,666.667 L 91.44,666.667 L 92.48,666.667 L 93.52,666.667 L 94.56,666.667 L 95.6,666.667 L 96.64,666.667 L 97.68,666.666 L 98.72,666.666 L 99.76,666.666 L 100.8,666.666 L 101.84,666.666 L 102.88,666.666 L 103.92,666.666 L 104.96,666.666 L 106,666.666 L 107.04,666.666 L 108.08,666.666 L 109.12,666.666 L 110.16,666.666 L 111.2,666.666 L 112.24,666.666 L 113.28,666.666 L 114.32,666.666 L 115.36,666.666 L 116.4,666.666 L 117.44,666.666 L 118.48,666.666 L 119.52,666.666 L 120.56,666.666 L 121.6,666.666 L 122.64,666.666 L 123.68,666.666 L 124.72,666.666 L 125.76,666.666 L 126.8,666.666 L 127.84,666.666 L 128.88,666.666 L 129.92,666.666 L 130.96,666.666 L 132,666.666 L 133.04,666.666 L 134.08,666.666 L 135.12,666.666 L 136.16,666.666 L 137.2,666.666 L 138.24,666.665 L 139.28,666.665 L 140.32,666.665 L 141.36,666.665 L 142.4,666.665 L 143.44,666.665 L 144.48,666.665 L 145.52,666.665 L 146.56,666.665 L 147.6,666.665 L 148.64,666.665 L 149.68,666.665 L 150.72,666.665 L 151.76,666.665 L 152.8,666.665 L 153.84,666.665 L 154.88,666.665 L 155.92,666.664 L 156.96,666.664 L 158,666.664 L 159.04,666.664 L 160.08,666.664 L 161.12,666.664 L 162.16,666.664 L 163.2,666.664 L 164.24,666.664 L 165.28,666.664 L 166.32,666.663 L 167.36,666.663 L 168.4,666.663 L 169.44,666.663 L 170.48,666.663 L 171.52,666.663 L 172.56,666.663 L 173.6,666.663 L 174.64,666.662 L 175.68,666.662 L 176.72,666.662 L 177.76,666.662 L 178.8,666.662 L 179.84,666.662 L 180.88,666.662 L 181.92,666.661 L 182.96,666.661 L 184,666.661 L 185.04,666.661 L 186.08,666.661 L 187.12,666.66 L 188.16,666.66 L 189.2,666.66 L 190.24,666.66 L 191.28,666.66 L 192.32,666.659 L 193.36,666.659 L 194.4,666.659 L 195.44,666.659 L 196.48,666.658 L 197.52,666.658 L 198.56,666.658 L 199.6,666.657 L 200.64,666.657 L 201.68,666.657 L 202.72,666.656 L 203.76,666.656 L 204.8,666.656 L 205.84,666.655 L 206.88,666.655 L 207.92,666.655 L 208.96,666.654 L 210,666.654 L 211.04,666.653 L 212.08,666.653 L 213.12,666.652 L 214.16,666.652 L 215.2,666.652 L 216.24,666.651 L 217.28,666.651 L 218.32,666.65 L 219.36,666.649 L 220.4,666.649 L 221.44,666.648 L 222.48,666.648 L 223.52,666.647 L 224.56,666.646 L 225.6,666.646 L 226.64,666.645 L 227.68,666.644 L 228.72,666.644 L 229.76,666.643 L 230.8,666.642 L 231.84,666.641 L 232.88,666.64 L 233.92,666.64 L 234.96,666.639 L 236,666.638 L 237.04,666.637 L 238.08,666.636 L 239.12,666.635 L 240.16,666.634 L 241.2,666.633 L 242.24,666.632 L 243.28,666.63 L 244.32,666.629 L 245.36,666.628 L 246.4,666.627 L 247.44,666.625 L 248.48,666.624 L 249.52,666.623 L 250.56,666.621 L 251.6,666.62 L 252.64,666.618 L 253.68,666.617 L 254.72,666.615 L 255.76,666.613 L 256.8,666.612 L 257.84,666.61 L 258.88,666.608 L 259.92,666.606 L 260.96,666.604 L 262,666.602 L 263.04,666.6 L 264.08,666.598 L 265.12,666.595 L 266.16,666.593 L 267.2,666.591 L 268.24,666.588 L 269.28,666.586 L 270.32,666.583 L 271.36,666.58 L 272.4,666.578 L 273.44,666.575 L 274.48,666.572 L 275.52,666.569 L 276.56,666.565 L 277.6,666.562 L 278.64,666.559 L 279.68,666.555 L 280.72,666.551 L 281.76,666.548 L 282.8,666.544 L 283.84,666.54 L 284.88,666.536 L 285.92,666.531 L 286.96,666.527 L 288,666.522 L 289.04,666.518 L 290.08,666.513 L 291.12,666.508 L 292.16,666.503 L 293.2,666.497 L 294.24,666.492 L 295.28,666.486 L 296.32,666.48 L 297.36,666.474 L 298.4,666.468 L 299.44,666.461 L 300.48,666.455 L 301.52,666.448 L 302.56,666.441 L 303.6,666.433 L 304.64,666.426 L 305.68,666.418 L 306.72,666.41 L 307.76,666.402 L 308.8,666.393 L 309.84,666.384 L 310.88,666.375 L 311.92,666.365 L 312.96,666.356 L 314,666.345 L 315.04,666.335 L 316.08,666.324 L 317.12,666.313 L 318.16,666.302 L 319.2,666.29 L 320.24,666.277 L 321.28,666.265 L 322.32,666.252 L 323.36,666.238 L 324.4,666.224 L 325.44,666.21 L 326.48,666.195 L 327.52,666.18 L 328.56,666.164 L 329.6,666.147 L 330.64,666.131 L 331.68,666.113 L 332.72,666.095 L 333.76,666.077 L 334.8,666.057 L 335.84,666.038 L 336.88,666.017 L 337.92,665.996 L 338.96,665.974 L 340,665.952 L 341.04,665.928 L 342.08,665.904 L 343.12,665.88 L 344.16,665.854 L 345.2,665.828 L 346.24,665.8 L 347.28,665.772 L 348.32,665.743 L 349.36,665.713 L 350.4,665.682 L 351.44,665.65 L 352.48,665.617 L 353.52,665.583 L 354.56,665.548 L 355.6,665.512 L 356.64,665.474 L 357.68,665.435 L 358.72,665.395 L 359.76,665.354 L 360.8,665.311 L 361.84,665.267 L 362.88,665.222 L 363.92,665.175 L 364.96,665.127 L 366,665.077 L 367.04,665.025 L 368.08,664.972 L 369.12,664.917 L 370.16,664.86 L 371.2,664.801 L 372.24,664.741 L 373.28,664.678 L 374.32,664.613 L 375.36,664.547 L 376.4,664.478 L 377.44,664.407 L 378.48,664.334 L 379.52,664.258 L 380.56,664.18 L 381.6,664.099 L 382.64,664.016 L 383.68,663.93 L 384.72,663.841 L 385.76,663.749 L 386.8,663.655 L 387.84,663.557 L 388.88,663.456 L 389.92,663.352 L 390.96,663.245 L 392,663.134 L 393.04,663.02 L 394.08,662.901 L 395.12,662.779 L 396.16,662.653 L 397.2,662.523 L 398.24,662.389 L 399.28,662.251 L 400.32,662.108 L 401.36,661.96 L 402.4,661.808 L 403.44,661.65 L 404.48,661.488 L 405.52,661.321 L 406.56,661.148 L 407.6,660.969 L 408.64,660.785 L 409.68,660.595 L 410.72,660.398 L 411.76,660.196 L 412.8,659.987 L 413.84,659.771 L 414.88,659.548 L 415.92,659.318 L 416.96,659.081 L 418,658.836 L 419.04,658.583 L 420.08,658.323 L 421.12,658.054 L 422.16,657.776 L 423.2,657.489 L 424.24,657.193 L 425.28,656.888 L 426.32,656.573 L 427.36,656.248 L 428.4,655.913 L 429.44,655.567 L 430.48,655.21 L 431.52,654.841 L 432.56,654.461 L 433.6,654.069 L 434.64,653.664 L 435.68,653.247 L 436.72,652.816 L 437.76,652.372 L 438.8,651.914 L 439.84,651.441 L 440.88,650.953 L 441.92,650.45 L 442.96,649.931 L 444,649.396 L 445.04,648.843 L 446.08,648.274 L 447.12,647.687 L 448.16,647.081 L 449.2,646.456 L 450.24,645.812 L 451.28,645.148 L 452.32,644.462 L 453.36,643.756 L 454.4,643.028 L 455.44,642.277 L 456.48,641.503 L 457.52,640.705 L 458.56,639.882 L 459.6,639.034 L 460.64,638.16 L 461.68,637.258 L 462.72,636.33 L 463.76,635.373 L 464.8,634.386 L 465.84,633.37 L 466.88,632.323 L 467.92,631.243 L 468.96,630.132 L 470,628.986 L 471.04,627.807 L 472.08,626.591 L 473.12,625.34 L 474.16,624.051 L 475.2,622.723 L 476.24,621.356 L 477.28,619.949 L 478.32,618.5 L 479.36,617.008 L 480.4,615.473 L 481.44,613.893 L 482.48,612.266 L 483.52,610.593 L 484.56,608.871 L 485.6,607.1 L 486.64,605.278 L 487.68,603.404 L 488.72,601.476 L 489.76,599.494 L 490.8,597.457 L 491.84,595.362 L 492.88,593.209 L 493.92,590.996 L 494.96,588.722 L 496,586.386 L 497.04,583.986 L 498.08,581.521 L 499.12,578.99 L 500.16,576.391 L 501.2,573.724 L 502.24,570.986 L 503.28,568.176 L 504.32,565.293 L 505.36,562.337 L 506.4,559.305 L 507.44,556.196 L 508.48,553.009 L 509.52,549.743 L 510.56,546.396 L 511.6,542.968 L 512.64,539.458 L 513.68,535.863 L 514.72,532.184 L 515.76,528.42 L 516.8,524.569 L 517.84,520.631 L 518.88,516.604 L 519.92,512.489 L 520.96,508.284 L 522,503.99 L 523.04,499.605 L 524.08,495.129 L 525.12,490.562 L 526.16,485.905 L 527.2,481.156 L 528.24,476.317 L 529.28,471.387 L 530.32,466.367 L 531.36,461.257 L 532.4,456.059 L 533.44,450.772 L 534.48,445.399 L 535.52,439.941 L 536.56,434.398 L 537.6,428.772 L 538.64,423.067 L 539.68,417.282 L 540.72,411.422 L 541.76,405.487 L 542.8,399.482 L 543.84,393.409 L 544.88,387.271 L 545.92,381.071 L 546.96,374.814 L 548,368.504 L 549.04,362.144 L 550.08,355.74 L 551.12,349.296 L 552.16,342.817 L 553.2,336.308 L 554.24,329.775 L 555.28,323.224 L 556.32,316.662 L 557.36,310.093 L 558.4,303.526 L 559.44,296.967 L 560.48,290.423 L 561.52,283.901 L 562.56,277.409 L 563.6,270.955 L 564.64,264.547 L 565.68,258.193 L 566.72,251.901 L 567.76,245.68 L 568.8,239.538 L 569.84,233.484 L 570.88,227.527 L 571.92,221.676 L 572.96,215.939 L 574,210.326 L 575.04,204.845 L 576.08,199.506 L 577.12,194.317 L 578.16,189.287 L 579.2,184.424 L 580.24,179.737 L 581.28,175.234 L 582.32,170.924 L 583.36,166.814 L 584.4,162.911 L 585.44,159.224 L 586.48,155.758 L 587.52,152.521 L 588.56,149.519 L 589.6,146.757 L 590.64,144.241 L 591.68,141.977 L 592.72,139.968 L 593.76,138.218 L 594.8,136.732 L 595.84,135.512 L 596.88,134.56 L 597.92,133.879 L 598.96,133.47 L 600,133.333 L 601.04,133.47 L 602.08,133.879 L 603.12,134.56 L 604.16,135.512 L 605.2,136.732 L 606.24,138.218 L 607.28,139.968 L 608.32,141.977 L 609.36,144.241 L 610.4,146.757 L 611.44,149.519 L 612.48,152.521 L 613.52,155.758 L 614.56,159.224 L 615.6,162.911 L 616.64,166.814 L 617.68,170.924 L 618.72,175.234 L 619.76,179.737 L 620.8,184.424 L 621.84,189.287 L 622.88,194.317 L 623.92,199.506 L 624.96,204.845 L 626,210.326 L 627.04,215.939 L 628.08,221.676 L 629.12,227.527 L 630.16,233.484 L 631.2,239.538 L 632.24,245.68 L 633.28,251.901 L 634.32,258.193 L 635.36,264.547 L 636.4,270.955 L 637.44,277.409 L 638.48,283.901 L 639.52,290.423 L 640.56,296.967 L 641.6,303.526 L 642.64,310.093 L 643.68,316.662 L 644.72,323.224 L 645.76,329.775 L 646.8,336.308 L 647.84,342.817 L 648.88,349.296 L 649.92,355.74 L 650.96,362.144 L 652,368.504 L 653.04,374.814 L 654.08,381.071 L 655.12,387.271 L 656.16,393.409 L 657.2,399.482 L 658.24,405.487 L 659.28,411.422 L 660.32,417.282 L 661.36,423.067 L 662.4,428.772 L 663.44,434.398 L 664.48,439.941 L 665.52,445.399 L 666.56,450.772 L 667.6,456.059 L 668.64,461.257 L 669.68,466.367 L 670.72,471.387 L 671.76,476.317 L 672.8,481.156 L 673.84,485.905 L 674.88,490.562 L 675.92,495.129 L 676.96,499.605 L 678,503.99 L 679.04,508.284 L 680.08,512.489 L 681.12,516.604 L 682.16,520.631 L 683.2,524.569 L 684.24,528.42 L 685.28,532.184 L 686.32,535.863 L 687.36,539.458 L 688.4,542.968 L 689.44,546.396 L 690.48,549.743 L 691.52,553.009 L 692.56,556.196 L 693.6,559.305 L 694.64,562.337 L 695.68,565.293 L 696.72,568.176 L 697.76,570.986 L 698.8,573.724 L 699.84,576.391 L 700.88,578.99 L 701.92,581.521 L 702.96,583.986 L 704,586.386 L 705.04,588.722 L 706.08,590.996 L 707.12,593.209 L 708.16,595.362 L 709.2,597.457 L 710.24,599.494 L 711.28,601.476 L 712.32,603.404 L 713.36,605.278 L 714.4,607.1 L 715.44,608.871 L 716.48,610.593 L 717.52,612.266 L 718.56,613.893 L 719.6,615.473 L 720.64,617.008 L 721.68,618.5 L 722.72,619.949 L 723.76,621.356 L 724.8,622.723 L 725.84,624.051 L 726.88,625.34 L 727.92,626.591 L 728.96,627.807 L 730,628.986 L 731.04,630.132 L 732.08,631.243 L 733.12,632.323 L 734.16,633.37 L 735.2,634.386 L 736.24,635.373 L 737.28,636.33 L 738.32,637.258 L 739.36,638.16 L 740.4,639.034 L 741.44,639.882 L 742.48,640.705 L 743.52,641.503 L 744.56,642.277 L 745.6,643.028 L 746.64,643.756 L 747.68,644.462 L 748.72,645.148 L 749.76,645.812 L 750.8,646.456 L 751.84,647.081 L 752.88,647.687 L 753.92,648.274 L 754.96,648.843 L 756,649.396 L 757.04,649.931 L 758.08,650.45 L 759.12,650.953 L 760.16,651.441 L 761.2,651.914 L 762.24,652.372 L 763.28,652.816 L 764.32,653.247 L 765.36,653.664 L 766.4,654.069 L 767.44,654.461 L 768.48,654.841 L 769.52,655.21 L 770.56,655.567 L 771.6,655.913 L 772.64,656.248 L 773.68,656.573 L 774.72,656.888 L 775.76,657.193 L 776.8,657.489 L 777.84,657.776 L 778.88,658.054 L 779.92,658.323 L 780.96,658.583 L 782,658.836 L 783.04,659.081 L 784.08,659.318 L 785.12,659.548 L 786.16,659.771 L 787.2,659.987 L 788.24,660.196 L 789.28,660.398 L 790.32,660.595 L 791.36,660.785 L 792.4,660.969 L 793.44,661.148 L 794.48,661.321 L 795.52,661.488 L 796.56,661.65 L 797.6,661.808 L 798.64,661.96 L 799.68,662.108 L 800.72,662.251 L 801.76,662.389 L 802.8,662.523 L 803.84,662.653 L 804.88,662.779 L 805.92,662.901 L 806.96,663.02 L 808,663.134 L 809.04,663.245 L 810.08,663.352 L 811.12,663.456 L 812.16,663.557 L 813.2,663.655 L 814.24,663.749 L 815.28,663.841 L 816.32,663.93 L 817.36,664.016 L 818.4,664.099 L 819.44,664.18 L 820.48,664.258 L 821.52,664.334 L 822.56,664.407 L 823.6,664.478 L 824.64,664.547 L 825.68,664.613 L 826.72,664.678 L 827.76,664.741 L 828.8,664.801 L 829.84,664.86 L 830.88,664.917 L 831.92,664.972 L 832.96,665.025 L 834,665.077 L 835.04,665.127 L 836.08,665.175 L 837.12,665.222 L 838.16,665.267 L 839.2,665.311 L 840.24,665.354 L 841.28,665.395 L 842.32,665.435 L 843.36,665.474 L 844.4,665.512 L 845.44,665.548 L 846.48,665.583 L 847.52,665.617 L 848.56,665.65 L 849.6,665.682 L 850.64,665.713 L 851.68,665.743 L 852.72,665.772 L 853.76,665.8 L 854.8,665.828 L 855.84,665.854 L 856.88,665.88 L 857.92,665.904 L 858.96,665.928 L 860,665.952 L 861.04,665.974 L 862.08,665.996 L 863.12,666.017 L 864.16,666.038 L 865.2,666.057 L 866.24,666.077 L 867.28,666.095 L 868.32,666.113 L 869.36,666.131 L 870.4,666.147 L 871.44,666.164 L 872.48,666.18 L 873.52,666.195 L 874.56,666.21 L 875.6,666.224 L 876.64,666.238 L 877.68,666.252 L 878.72,666.265 L 879.76,666.277 L 880.8,666.29 L 881.84,666.302 L 882.88,666.313 L 883.92,666.324 L 884.96,666.335 L 886,666.345 L 887.04,666.356 L 888.08,666.365 L 889.12,666.375 L 890.16,666.384 L 891.2,666.393 L 892.24,666.402 L 893.28,666.41 L 894.32,666.418 L 895.36,666.426 L 896.4,666.433 L 897.44,666.441 L 898.48,666.448 L 899.52,666.455 L 900.56,666.461 L 901.6,666.468 L 902.64,666.474 L 903.68,666.48 L 904.72,666.486 L 905.76,666.492 L 906.8,666.497 L 907.84,666.503 L 908.88,666.508 L 909.92,666.513 L 910.96,666.518 L 912,666.522 L 913.04,666.527 L 914.08,666.531 L 915.12,666.536 L 916.16,666.54 L 917.2,666.544 L 918.24,666.548 L 919.28,666.551 L 920.32,666.555 L 921.36,666.559 L 922.4,666.562 L 923.44,666.565 L 924.48,666.569 L 925.52,666.572 L 926.56,666.575 L 927.6,666.578 L 928.64,666.58 L 929.68,666.583 L 930.72,666.586 L 931.76,666.588 L 932.8,666.591 L 933.84,666.593 L 934.88,666.595 L 935.92,666.598 L 936.96,666.6 L 938,666.602 L 939.04,666.604 L 940.08,666.606 L 941.12,666.608 L 942.16,666.61 L 943.2,666.612 L 944.24,666.613 L 945.28,666.615 L 946.32,666.617 L 947.36,666.618 L 948.4,666.62 L 949.44,666.621 L 950.48,666.623 L 951.52,666.624 L 952.56,666.625 L 953.6,666.627 L 954.64,666.628 L 955.68,666.629 L 956.72,666.63 L 957.76,666.632 L 958.8,666.633 L 959.84,666.634 L 960.88,666.635 L 961.92,666.636 L 962.96,666.637 L 964,666.638 L 965.04,666.639 L 966.08,666.64 L 967.12,666.64 L 968.16,666.641 L 969.2,666.642 L 970.24,666.643 L 971.28,666.644 L 972.32,666.644 L 973.36,666.645 L 974.4,666.646 L 975.44,666.646 L 976.48,666.647 L 977.52,666.648 L 978.56,666.648 L 979.6,666.649 L 980.64,666.649 L 981.68,666.65 L 982.72,666.651 L 983.76,666.651 L 984.8,666.652 L 985.84,666.652 L 986.88,666.652 L 987.92,666.653 L 988.96,666.653 L 990,666.654 L 991.04,666.654 L 992.08,666.655 L 993.12,666.655 L 994.16,666.655 L 995.2,666.656 L 996.24,666.656 L 997.28,666.656 L 998.32,666.657 L 999.36,666.657 L 1000.4,666.657 L 1001.44,666.658 L 1002.48,666.658 L 1003.52,666.658 L 1004.56,666.659 L 1005.6,666.659 L 1006.64,666.659 L 1007.68,666.659 L 1008.72,666.66 L 1009.76,666.66 L 1010.8,666.66 L 1011.84,666.66 L 1012.88,666.66 L 1013.92,666.661 L 1014.96,666.661 L 1016,666.661 L 1017.04,666.661 L 1018.08,666.661 L 1019.12,666.662 L 1020.16,666.662 L 1021.2,666.662 L 1022.24,666.662 L 1023.28,666.662 L 1024.32,666.662 L 1025.36,666.662 L 1026.4,666.663 L 1027.44,666.663 L 1028.48,666.663 L 1029.52,666.663 L 1030.56,666.663 L 1031.6,666.663 L 1032.64,666.663 L 1033.68,666.663 L 1034.72,666.664 L 1035.76,666.664 L 1036.8,666.664 L 1037.84,666.664 L 1038.88,666.664 L 1039.92,666.664 L 1040.96,666.664 L 1042,666.664 L 1043.04,666.664 L 1044.08,666.664 L 1045.12,666.665 L 1046.16,666.665 L 1047.2,666.665 L 1048.24,666.665 L 1049.28,666.665 L 1050.32,666.665 L 1051.36,666.665 L 1052.4,666.665 L 1053.44,666.665 L 1054.48,666.665 L 1055.52,666.665 L 1056.56,666.665 L 1057.6,666.665 L 1058.64,666.665 L 1059.68,666.665 L 1060.72,666.665 L 1061.76,666.665 L 1062.8,666.666 L 1063.84,666.666 L 1064.88,666.666 L 1065.92,666.666 L 1066.96,666.666 L 1068,666.666 L 1069.04,666.666 L 1070.08,666.666 L 1071.12,666.666 L 1072.16,666.666 L 1073.2,666.666 L 1074.24,666.666 L 1075.28,666.666 L 1076.32,666.666 L 1077.36,666.666 L 1078.4,666.666 L 1079.44,666.666 L 1080.48,666.666 L 1081.52,666.666 L 1082.56,666.666 L 1083.6,666.666 L 1084.64,666.666 L 1085.68,666.666 L 1086.72,666.666 L 1087.76,666.666 L 1088.8,666.666 L 1089.84,666.666 L 1090.88,666.666 L 1091.92,666.666 L 1092.96,666.666 L 1094,666.666 L 1095.04,666.666 L 1096.08,666.666 L 1097.12,666.666 L 1098.16,666.666 L 1099.2,666.666 L 1100.24,666.666 L 1101.28,666.666 L 1102.32,666.666 L 1103.36,666.667 L 1104.4,666.667 L 1105.44,666.667 L 1106.48,666.667 L 1107.52,666.667 L 1108.56,666.667 L 1109.6,666.667 L 1110.64,666.667 L 1111.68,666.667 L 1112.72,666.667 L 1113.76,666.667 L 1114.8,666.667 L 1115.84,666.667 L 1116.88,666.667 L 1117.92,666.667 L 1118.96,666.667 L 1120,666.667" stroke="#0066cc" stroke-width="3" fill="none" stroke-linecap="round" stroke-linejoin="round"/>
<path d="M 80,666.667 L 81.04,666.63 L 82.08,666.593 L 83.12,666.557 L 84.16,666.52 L 85.2,666.483 L 86.24,666.446 L 87.28,666.41 L 88.32,666.373 L 89.36,666.336 L 90.4,666.299 L 91.44,666.263 L 92.48,666.226 L 93.52,666.189 L 94.56,666.153 L 95.6,666.116 L 96.64,666.079 L 97.68,666.043 L 98.72,666.006 L 99.76,665.969 L 100.8,665.933 L 101.84,665.896 L 102.88,665.859 L 103.92,665.823 L 104.96,665.786 L 106,665.749 L 107.04,665.713 L 108.08,665.676 L 109.12,665.64 L 110.16,665.603 L 111.2,665.566 L 112.24,665.53 L 113.28,665.493 L 114.32,665.457 L 115.36,665.42 L 116.4,665.384 L 117.44,665.347 L 118.48,665.311 L 119.52,665.274 L 120.56,665.238 L 121.6,665.201 L 122.64,665.165 L 123.68,665.128 L 124.72,665.092 L 125.76,665.056 L 126.8,665.019 L 127.84,664.983 L 128.88,664.946 L 129.92,664.91 L 130.96,664.874 L 132,664.837 L 133.04,664.801 L 134.08,664.765 L 135.12,664.729 L 136.16,664.692 L 137.2,664.656 L 138.24,664.62 L 139.28,664.584 L 140.32,664.548 L 141.36,664.511 L 142.4,664.475 L 143.44,664.439 L 144.48,664.403 L 145.52,664.367 L 146.56,664.331 L 147.6,664.295 L 148.64,664.259 L 149.68,664.223 L 150.72,664.187 L 151.76,664.151 L 152.8,664.115 L 153.84,664.079 L 154.88,664.043 L 155.92,664.007 L 156.96,663.972 L 158,663.936 L 159.04,663.9 L 160.08,663.864 L 161.12,663.828 L 162.16,663.793 L 163.2,663.757 L 164.24,663.721 L 165.28,663.686 L 166.32,663.65 L 167.36,663.615 L 168.4,663.579 L 169.44,663.544 L 170.48,663.508 L 171.52,663.473 L 172.56,663.437 L 173.6,663.402 L 174.64,663.366 L 175.68,663.331 L 176.72,663.296 L 177.76,663.261 L 178.8,663.225 L 179.84,663.19 L 180.88,663.155 L 181.92,663.12 L 182.96,663.085 L 184,663.05 L 185.04,663.014 L 186.08,662.979 L 187.12,662.944 L 188.16,662.91 L 189.2,662.875 L 190.24,662.84 L 191.28,662.805 L 192.32,662.77 L 193.36,662.735 L 194.4,662.701 L 195.44,662.666 L 196.48,662.631 L 197.52,662.597 L 198.56,662.562 L 199.6,662.527 L 200.64,662.493 L 201.68,662.458 L 202.72,662.424 L 203.76,662.39 L 204.8,662.355 L 205.84,662.321 L 206.88,662.287 L 207.92,662.252 L 208.96,662.218 L 210,662.184 L 211.04,662.15 L 212.08,662.116 L 213.12,662.082 L 214.16,662.048 L 215.2,662.014 L 216.24,661.98 L 217.28,661.946 L 218.32,661.912 L 219.36,661.878 L 220.4,661.845 L 221.44,661.811 L 222.48,661.777 L 223.52,661.744 L 224.56,661.71 L 225.6,661.677 L 226.64,661.643 L 227.68,661.61 L 228.72,661.576 L 229.76,661.543 L 230.8,661.51 L 231.84,661.477 L 232.88,661.443 L 233.92,661.41 L 234.96,661.377 L 236,661.344 L 237.04,661.311 L 238.08,661.278 L 239.12,661.245 L 240.16,661.213 L 241.2,661.18 L 242.24,661.147 L 243.28,661.114 L 244.32,661.082 L 245.36,661.049 L 246.4,661.017 L 247.44,660.984 L 248.48,660.952 L 249.52,660.919 L 250.56,660.887 L 251.6,660.855 L 252.64,660.823 L 253.68,660.791 L 254.72,660.758 L 255.76,660.726 L 256.8,660.694 L 257.84,660.663 L 258.88,660.631 L 259.92,660.599 L 260.96,660.567 L 262,660.535 L 263.04,660.504 L 264.08,660.472 L 265.12,660.441 L 266.16,660.409 L 267.2,660.378 L 268.24,660.347 L 269.28,660.315 L 270.32,660.284 L 271.36,660.253 L 272.4,660.222 L 273.44,660.191 L 274.48,660.16 L 275.52,660.129 L 276.56,660.098 L 277.6,660.067 L 278.64,660.037 L 279.68,660.006 L 280.72,659.975 L 281.76,659.945 L 282.8,659.914 L 283.84,659.884 L 284.88,659.853 L 285.92,659.823 L 286.96,659.793 L 288,659.763 L 289.04,659.733 L 290.08,659.703 L 291.12,659.673 L 292.16,659.643 L 293.2,659.613 L 294.24,659.583 L 295.28,659.554 L 296.32,659.524 L 297.36,659.495 L 298.4,659.465 L 299.44,659.436 L 300.48,659.406 L 301.52,659.377 L 302.56,659.348 L 303.6,659.319 L 304.64,659.29 L 305.68,659.261 L 306.72,659.232 L 307.76,659.203 L 308.8,659.174 L 309.84,659.146 L 310.88,659.117 L 311.92,659.088 L 312.96,659.06 L 314,659.032 L 315.04,659.003 L 316.08,658.975 L 317.12,658.947 L 318.16,658.919 L 319.2,658.891 L 320.24,658.863 L 321.28,658.835 L 322.32,658.807 L 323.36,658.779 L 324.4,658.752 L 325.44,658.724 L 326.48,658.697 L 327.52,658.669 L 328.56,658.642 L 329.6,658.615 L 330.64,658.588 L 331.68,658.561 L 332.72,658.534 L 333.76,658.507 L 334.8,658.48 L 335.84,658.453 L 336.88,658.426 L 337.92,658.4 L 338.96,658.373 L 340,658.347 L 341.04,658.32 L 342.08,658.294 L 343.12,658.268 L 344.16,658.242 L 345.2,658.216 L 346.24,658.19 L 347.28,658.164 L 348.32,658.138 L 349.36,658.113 L 350.4,658.087 L 351.44,658.061 L 352.48,658.036 L 353.52,658.011 L 354.56,657.985 L 355.6,657.96 L 356.64,657.935 L 357.68,657.91 L 358.72,657.885 L 359.76,657.861 L 360.8,657.836 L 361.84,657.811 L 362.88,657.787 L 363.92,657.762 L 364.96,657.738 L 366,657.714 L 367.04,657.689 L 368.08,657.665 L 369.12,657.641 L 370.16,657.617 L 371.2,657.594 L 372.24,657.57 L 373.28,657.546 L 374.32,657.523 L 375.36,657.499 L 376.4,657.476 L 377.44,657.453 L 378.48,657.43 L 379.52,657.406 L 380.56,657.383 L 381.6,657.361 L 382.64,657.338 L 383.68,657.315 L 384.72,657.293 L 385.76,657.27 L 386.8,657.248 L 387.84,657.225 L 388.88,657.203 L 389.92,657.181 L 390.96,657.159 L 392,657.137 L 393.04,657.115 L 394.08,657.094 L 395.12,657.072 L 396.16,657.051 L 397.2,657.029 L 398.24,657.008 L 399.28,656.987 L 400.32,656.966 L 401.36,656.945 L 402.4,656.924 L 403.44,656.903 L 404.48,656.882 L 405.52,656.862 L 406.56,656.841 L 407.6,656.821 L 408.64,656.801 L 409.68,656.78 L 410.72,656.76 L 411.76,656.74 L 412.8,656.72 L 413.84,656.701 L 414.88,656.681 L 415.92,656.662 L 416.96,656.642 L 418,656.623 L 419.04,656.604 L 420.08,656.584 L 421.12,656.565 L 422.16,656.547 L 423.2,656.528 L 424.24,656.509 L 425.28,656.491 L 426.32,656.472 L 427.36,656.454 L 428.4,656.436 L 429.44,656.417 L 430.48,656.399 L 431.52,656.382 L 432.56,656.364 L 433.6,656.346 L 434.64,656.328 L 435.68,656.311 L 436.72,656.294 L 437.76,656.276 L 438.8,656.259 L 439.84,656.242 L 440.88,656.225 L 441.92,656.209 L 442.96,656.192 L 444,656.175 L 445.04,656.159 L 446.08,656.142 L 447.12,656.126 L 448.16,656.11 L 449.2,656.094 L 450.24,656.078 L 451.28,656.062 L 452.32,656.047 L 453.36,656.031 L 454.4,656.016 L 455.44,656 L 456.48,655.985 L 457.52,655.97 L 458.56,655.955 L 459.6,655.94 L 460.64,655.925 L 461.68,655.91 L 462.72,655.896 L 463.76,655.881 L 464.8,655.867 L 465.84,655.853 L 466.88,655.838 L 467.92,655.824 L 468.96,655.81 L 470,655.797 L 471.04,655.783 L 472.08,655.769 L 473.12,655.756 L 474.16,655.742 L 475.2,655.729 L 476.24,655.716 L 477.28,655.703 L 478.32,655.69 L 479.36,655.677 L 480.4,655.664 L 481.44,655.652 L 482.48,655.639 L 483.52,655.627 L 484.56,655.615 L 485.6,655.602 L 486.64,655.59 L 487.68,655.578 L 488.72,655.567 L 489.76,655.555 L 490.8,655.543 L 491.84,655.532 L 492.88,655.52 L 493.92,655.509 L 494.96,655.498 L 496,655.487 L 497.04,655.476 L 498.08,655.465 L 499.12,655.454 L 500.16,655.444 L 501.2,655.433 L 502.24,655.423 L 503.28,655.412 L 504.32,655.402 L 505.36,655.392 L 506.4,655.382 L 507.44,655.372 L 508.48,655.362 L 509.52,655.353 L 510.56,655.343 L 511.6,655.334 L 512.64,655.325 L 513.68,655.315 L 514.72,655.306 L 515.76,655.297 L 516.8,655.288 L 517.84,655.28 L 518.88,655.271 L 519.92,655.263 L 520.96,655.254 L 522,655.246 L 523.04,655.238 L 524.08,655.229 L 525.12,655.221 L 526.16,655.214 L 527.2,655.206 L 528.24,655.198 L 529.28,655.191 L 530.32,655.183 L 531.36,655.176 L 532.4,655.169 L 533.44,655.162 L 534.48,655.155 L 535.52,655.148 L 536.56,655.141 L 537.6,655.134 L 538.64,655.128 L 539.68,655.121 L 540.72,655.115 L 541.76,655.109 L 542.8,655.103 L 543.84,655.097 L 544.88,655.091 L 545.92,655.085 L 546.96,655.079 L 548,655.074 L 549.04,655.068 L 550.08,655.063 L 551.12,655.058 L 552.16,655.052 L 553.2,655.047 L 554.24,655.043 L 555.28,655.038 L 556.32,655.033 L 557.36,655.029 L 558.4,655.024 L 559.44,655.02 L 560.48,655.015 L 561.52,655.011 L 562.56,655.007 L 563.6,655.003 L 564.64,655 L 565.68,654.996 L 566.72,654.992 L 567.76,654.989 L 568.8,654.985 L 569.84,654.982 L 570.88,654.979 L 571.92,654.976 L 572.96,654.973 L 574,654.97 L 575.04,654.968 L 576.08,654.965 L 577.12,654.963 L 578.16,654.96 L 579.2,654.958 L 580.24,654.956 L 581.28,654.954 L 582.32,654.952 L 583.36,654.95 L 584.4,654.948 L 585.44,654.947 L 586.48,654.945 L 587.52,654.944 L 588.56,654.943 L 589.6,654.941 L 590.64,654.94 L 591.68,654.939 L 592.72,654.939 L 593.76,654.938 L 594.8,654.937 L 595.84,654.937 L 596.88,654.936 L 597.92,654.936 L 598.96,654.936 L 600,654.936 L 601.04,654.936 L 602.08,654.936 L 603.12,654.936 L 604.16,654.937 L 605.2,654.937 L 606.24,654.938 L 607.28,654.939 L 608.32,654.939 L 609.36,654.94 L 610.4,654.941 L 611.44,654.943 L 612.48,654.944 L 613.52,654.945 L 614.56,654.947 L 615.6,654.948 L 616.64,654.95 L 617.68,654.952 L 618.72,654.954 L 619.76,654.956 L 620.8,654.958 L 621.84,654.96 L 622.88,654.963 L 623.92,654.965 L 624.96,654.968 L 626,654.97 L 627.04,654.973 L 628.08,654.976 L 629.12,654.979 L 630.16,654.982 L 631.2,654.985 L 632.24,654.989 L 633.28,654.992 L 634.32,654.996 L 635.36,655 L 636.4,655.003 L 637.44,655.007 L 638.48,655.011 L 639.52,655.015 L 640.56,655.02 L 641.6,655.024 L 642.64,655.029 L 643.68,655.033 L 644.72,655.038 L 645.76,655.043 L 646.8,655.047 L 647.84,655.052 L 648.88,655.058 L 649.92,655.063 L 650.96,655.068 L 652,655.074 L 653.04,655.079 L 654.08,655.085 L 655.12,655.091 L 656.16,655.097 L 657.2,655.103 L 658.24,655.109 L 659.28,655.115 L 660.32,655.121 L 661.36,655.128 L 662.4,655.134 L 663.44,655.141 L 664.48,655.148 L 665.52,655.155 L 666.56,655.162 L 667.6,655.169 L 668.64,655.176 L 669.68,655.183 L 670.72,655.191 L 671.76,655.198 L 672.8,655.206 L 673.84,655.214 L 674.88,655.221 L 675.92,655.229 L 676.96,655.238 L 678,655.246 L 679.04,655.254 L 680.08,655.263 L 681.12,655.271 L 682.16,655.28 L 683.2,655.288 L 684.24,655.297 L 685.28,655.306 L 686.32,655.315 L 687.36,655.325 L 688.4,655.334 L 689.44,655.343 L 690.48,655.353 L 691.52,655.362 L 692.56,655.372 L 693.6,655.382 L 694.64,655.392 L 695.68,655.402 L 696.72,655.412 L 697.76,655.423 L 698.8,655.433 L 699.84,655.444 L 700.88,655.454 L 701.92,655.465 L 702.96,655.476 L 704,655.487 L 705.04,655.498 L 706.08,655.509 L 707.12,655.52 L 708.16,655.532 L 709.2,655.543 L 710.24,655.555 L 711.28,655.567 L 712.32,655.578 L 713.36,655.59 L 714.4,655.602 L 715.44,655.615 L 716.48,655.627 L 717.52,655.639 L 718.56,655.652 L 719.6,655.664 L 720.64,655.677 L 721.68,655.69 L 722.72,655.703 L 723.76,655.716 L 724.8,655.729 L 725.84,655.742 L 726.88,655.756 L 727.92,655.769 L 728.96,655.783 L 730,655.797 L 731.04,655.81 L 732.08,655.824 L 733.12,655.838 L 734.16,655.853 L 735.2,655.867 L 736.24,655.881 L 737.28,655.896 L 738.32,655.91 L 739.36,655.925 L 740.4,655.94 L 741.44,655.955 L 742.48,655.97 L 743.52,655.985 L 744.56,656 L 745.6,656.016 L 746.64,656.031 L 747.68,656.047 L 748.72,656.062 L 749.76,656.078 L 750.8,656.094 L 751.84,656.11 L 752.88,656.126 L 753.92,656.142 L 754.96,656.159 L 756,656.175 L 757.04,656.192 L 758.08,656.209 L 759.12,656.225 L 760.16,656.242 L 761.2,656.259 L 762.24,656.276 L 763.28,656.294 L 764.32,656.311 L 765.36,656.328 L 766.4,656.346 L 767.44,656.364 L 768.48,656.382 L 769.52,656.399 L 770.56,656.417 L 771.6,656.436 L 772.64,656.454 L 773.68,656.472 L 774.72,656.491 L 775.76,656.509 L 776.8,656.528 L 777.84,656.547 L 778.88,656.565 L 779.92,656.584 L 780.96,656.604 L 782,656.623 L 783.04,656.642 L 784.08,656.662 L 785.12,656.681 L 786.16,656.701 L 787.2,656.72 L 788.24,656.74 L 789.28,656.76 L 790.32,656.78 L 791.36,656.801 L 792.4,656.821 L 793.44,656.841 L 794.48,656.862 L 795.52,656.882 L 796.56,656.903 L 797.6,656.924 L 798.64,656.945 L 799.68,656.966 L 800.72,656.987 L 801.76,657.008 L 802.8,657.029 L 803.84,657.051 L 804.88,657.072 L 805.92,657.094 L 806.96,657.115 L 808,657.137 L 809.04,657.159 L 810.08,657.181 L 811.12,657.203 L 812.16,657.225 L 813.2,657.248 L 814.24,657.27 L 815.28,657.293 L 816.32,657.315 L 817.36,657.338 L 818.4,657.361 L 819.44,657.383 L 820.48,657.406 L 821.52,657.43 L 822.56,657.453 L 823.6,657.476 L 824.64,657.499 L 825.68,657.523 L 826.72,657.546 L 827.76,657.57 L 828.8,657.594 L 829.84,657.617 L 830.88,657.641 L 831.92,657.665 L 832.96,657.689 L 834,657.714 L 835.04,657.738 L 836.08,657.762 L 837.12,657.787 L 838.16,657.811 L 839.2,657.836 L 840.24,657.861 L 841.28,657.885 L 842.32,657.91 L 843.36,657.935 L 844.4,657.96 L 845.44,657.985 L 846.48,658.011 L 847.52,658.036 L 848.56,658.061 L 849.6,658.087 L 850.64,658.113 L 851.68,658.138 L 852.72,658.164 L 853.76,658.19 L 854.8,658.216 L 855.84,658.242 L 856.88,658.268 L 857.92,658.294 L 858.96,658.32 L 860,658.347 L 861.04,658.373 L 862.08,658.4 L 863.12,658.426 L 864.16,658.453 L 865.2,658.48 L 866.24,658.507 L 867.28,658.534 L 868.32,658.561 L 869.36,658.588 L 870.4,658.615 L 871.44,658.642 L 872.48,658.669 L 873.52,658.697 L 874.56,658.724 L 875.6,658.752 L 876.64,658.779 L 877.68,658.807 L 878.72,658.835 L 879.76,658.863 L 880.8,658.891 L 881.84,658.919 L 882.88,658.947 L 883.92,658.975 L 884.96,659.003 L 886,659.032 L 887.04,659.06 L 888.08,659.088 L 889.12,659.117 L 890.16,659.146 L 891.2,659.174 L 892.24,659.203 L 893.28,659.232 L 894.32,659.261 L 895.36,659.29 L 896.4,659.319 L 897.44,659.348 L 898.48,659.377 L 899.52,659.406 L 900.56,659.436 L 901.6,659.465 L 902.64,659.495 L 903.68,659.524 L 904.72,659.554 L 905.76,659.583 L 906.8,659.613 L 907.84,659.643 L 908.88,659.673 L 909.92,659.703 L 910.96,659.733 L 912,659.763 L 913.04,659.793 L 914.08,659.823 L 915.12,659.853 L 916.16,659.884 L 917.2,659.914 L 918.24,659.945 L 919.28,659.975 L 920.32,660.006 L 921.36,660.037 L 922.4,660.067 L 923.44,660.098 L 924.48,660.129 L 925.52,660.16 L 926.56,660.191 L 927.6,660.222 L 928.64,660.253 L 929.68,660.284 L 930.72,660.315 L 931.76,660.347 L 932.8,660.378 L 933.84,660.409 L 934.88,660.441 L 935.92,660.472 L 936.96,660.504 L 938,660.535 L 939.04,660.567 L 940.08,660.599 L 941.12,660.631 L 942.16,660.663 L 943.2,660.694 L 944.24,660.726 L 945.28,660.758 L 946.32,660.791 L 947.36,660.823 L 948.4,660.855 L 949.44,660.887 L 950.48,660.919 L 951.52,660.952 L 952.56,660.984 L 953.6,661.017 L 954.64,661.049 L 955.68,661.082 L 956.72,661.114 L 957.76,661.147 L 958.8,661.18 L 959.84,661.213 L 960.88,661.245 L 961.92,661.278 L 962.96,661.311 L 964,661.344 L 965.04,661.377 L 966.08,661.41 L 967.12,661.443 L 968.16,661.477 L 969.2,661.51 L 970.24,661.543 L 971.28,661.576 L 972.32,661.61 L 973.36,661.643 L 974.4,661.677 L 975.44,661.71 L 976.48,661.744 L 977.52,661.777 L 978.56,661.811 L 979.6,661.845 L 980.64,661.878 L 981.68,661.912 L 982.72,661.946 L 983.76,661.98 L 984.8,662.014 L 985.84,662.048 L 986.88,662.082 L 987.92,662.116 L 988.96,662.15 L 990,662.184 L 991.04,662.218 L 992.08,662.252 L 993.12,662.287 L 994.16,662.321 L 995.2,662.355 L 996.24,662.39 L 997.28,662.424 L 998.32,662.458 L 999.36,662.493 L 1000.4,662.527 L 1001.44,662.562 L 1002.48,662.597 L 1003.52,662.631 L 1004.56,662.666 L 1005.6,662.701 L 1006.64,662.735 L 1007.68,662.77 L 1008.72,662.805 L 1009.76,662.84 L 1010.8,662.875 L 1011.84,662.91 L 1012.88,662.944 L 1013.92,662.979 L 1014.96,663.014 L 1016,663.05 L 1017.04,663.085 L 1018.08,663.12 L 1019.12,663.155 L 1020.16,663.19 L 1021.2,663.225 L 1022.24,663.261 L 1023.28,663.296 L 1024.32,663.331 L 1025.36,663.366 L 1026.4,663.402 L 1027.44,663.437 L 1028.48,663.473 L 1029.52,663.508 L 1030.56,663.544 L 1031.6,663.579 L 1032.64,663.615 L 1033.68,663.65 L 1034.72,663.686 L 1035.76,663.721 L 1036.8,663.757 L 1037.84,663.793 L 1038.88,663.828 L 1039.92,663.864 L 1040.96,663.9 L 1042,663.936 L 1043.04,663.972 L 1044.08,664.007 L 1045.12,664.043 L 1046.16,664.079 L 1047.2,664.115 L 1048.24,664.151 L 1049.28,664.187 L 1050.32,664.223 L 1051.36,664.259 L 1052.4,664.295 L 1053.44,664.331 L 1054.48,664.367 L 1055.52,664.403 L 1056.56,664.439 L 1057.6,664.475 L 1058.64,664.511 L 1059.68,664.548 L 1060.72,664.584 L 1061.76,664.62 L 1062.8,664.656 L 1063.84,664.692 L 1064.88,664.729 L 1065.92,664.765 L 1066.96,664.801 L 1068,664.837 L 1069.04,664.874 L 1070.08,664.91 L 1071.12,664.946 L 1072.16,664.983 L 1073.2,665.019 L 1074.24,665.056 L 1075.28,665.092 L 1076.32,665.128 L 1077.36,665.165 L 1078.4,665.201 L 1079.44,665.238 L 1080.48,665.274 L 1081.52,665.311 L 1082.56,665.347 L 1083.6,665.384 L 1084.64,665.42 L 1085.68,665.457 L 1086.72,665.493 L 1087.76,665.53 L 1088.8,665.566 L 1089.84,665.603 L 1090.88,665.64 L 1091.92,665.676 L 1092.96,665.713 L 1094,665.749 L 1095.04,665.786 L 1096.08,665.823 L 1097.12,665.859 L 1098.16,665.896 L 1099.2,665.933 L 1100.24,665.969 L 1101.28,666.006 L 1102.32,666.043 L 1103.36,666.079 L 1104.4,666.116 L 1105.44,666.153 L 1106.48,666.189 L 1107.52,666.226 L 1108.56,666.263 L 1109.6,666.299 L 1110.64,666.336 L 1111.68,666.373 L 1112.72,666.41 L 1113.76,666.446 L 1114.8,666.483 L 1115.84,666.52 L 1116.88,666.557 L 1117.92,666.593 L 1118.96,666.63 L 1120,666.667" stroke="#cc0000" stroke-width="3" fill="none" stroke-dasharray="8,4" stroke-linecap="round" stroke-linejoin="round"/>
<circle cx="80" cy="666.667" r="4" fill="#333333" stroke="white" stroke-width="1"/>
<circle cx="426.667" cy="656.466" r="4" fill="#333333" stroke="white" stroke-width="1"/>
<circle cx="773.333" cy="656.466" r="4" fill="#333333" stroke="white" stroke-width="1"/>
<circle cx="1120" cy="666.667" r="4" fill="#333333" stroke="white" stroke-width="1"/>
<g stroke="#333333" stroke-width="2">
<line x1="600" y1="80" x2="600" y2="720"/>
<line x1="80" y1="666.667" x2="1120" y2="666.667"/>
</g>
<text x="600" y="780" text-anchor="middle" font-family="Arial, sans-serif" font-size="16" fill="#333333">x</text>
<text x="20" y="400" text-anchor="middle" font-family="Arial, sans-serif" font-size="16" fill="#333333" transform="rotate(-90, 20, 400)">y</text>
<text x="600" y="30" text-anchor="middle" font-family="Arial, sans-serif" font-size="20" font-weight="bold" fill="#333333">Природній кубічний сплайн</text>
<rect x="990" y="85" width="180" height="60" fill="white" stroke="#333333" stroke-width="1" opacity="0.9"/>
<line x1="1000" y1="110" x2="1030" y2="110" stroke="#0066cc" stroke-width="3"/>
<text x="1040" y="115" font-family="Arial, sans-serif" font-size="14" fill="#333333">f(x)</text>
<line x1="1000" y1="130" x2="1030" y2="130" stroke="#cc0000" stroke-width="3" stroke-dasharray="8,4"/>
<text x="1040" y="135" font-family="Arial, sans-serif" font-size="14" fill="#333333">S(x)</text>
</svg>
